{"asset":{"version":"2.0","generator":"THREE.GLTFExporter"},"scenes":[{"name":"default","nodes":[0]}],"scene":0,"nodes":[{"name":"grass","extras":{"data":{"name":"grass","points":[{"name":"Origin","pos":{"x":0,"y":0,"z":0}}],"billboard":{"enabled":false,"y":false},"custom":[],"instances":[{"name":"grass","uuid":"F53D1216-1809-4692-AD7E-96BC4F4DD240","parent":null,"pos":{"x":1,"y":0,"z":0},"rot":{"x":0,"y":0,"z":0,"order":"XYZ"},"sca":{"x":1,"y":1,"z":1},"custom":[]}]}},"mesh":0}],"bufferViews":[{"buffer":0,"byteOffset":0,"byteLength":72,"target":34962,"byteStride":12},{"buffer":0,"byteOffset":72,"byteLength":72,"target":34962,"byteStride":12},{"buffer":0,"byteOffset":144,"byteLength":48,"target":34962,"byteStride":8},{"buffer":0,"byteOffset":192,"byteLength":48,"target":34962,"byteStride":8},{"buffer":0,"byteOffset":240,"byteLength":12,"target":34963}],"buffers":[{"byteLength":252,"uri":"data:application/octet-stream;base64,"}],"accessors":[{"bufferView":0,"componentType":5126,"count":6,"max":[0,0,0],"min":[-1,-1,0],"type":"VEC3"},{"bufferView":1,"componentType":5126,"count":6,"max":[0,0,1],"min":[0,0,1],"type":"VEC3"},{"bufferView":2,"componentType":5126,"count":6,"max":[0.0625,0.0625000149011612],"min":[0,0],"type":"VEC2"},{"bufferView":3,"componentType":5126,"count":6,"max":[-1,0],"min":[-1,0],"type":"VEC2"},{"bufferView":4,"componentType":5123,"count":6,"max":[5],"min":[0],"type":"SCALAR"}],"materials":[{"pbrMetallicRoughness":{"metallicFactor":0.5,"roughnessFactor":0.5,"baseColorTexture":{"index":0}},"alphaMode":"MASK","alphaCutoff":0.01}],"textures":[{"sampler":0,"source":0,"name":"texture_1"}],"samplers":[{"magFilter":9728,"minFilter":9728,"wrapS":33071,"wrapT":33071}],"images":[{"mimeType":"image/png","uri":"texture_1.png"}],"meshes":[{"primitives":[{"mode":4,"attributes":{"POSITION":0,"NORMAL":1,"TEXCOORD_0":2,"_UVANIMATION":3},"extras":{"indexNormals":[{"x":0,"y":0,"z":1},{"x":0,"y":0,"z":1},{"x":0,"y":0,"z":1},{"x":0,"y":0,"z":1},{"x":0,"y":0,"z":1},{"x":0,"y":0,"z":1}]},"indices":4,"material":0}]}]}