# Blender 3.4.1
# www.blender.org
mtllib Landscape.mtl
o Dirt_1
v 0.500000 0.500000 0.000000
v -0.500000 0.500000 0.000000
v 0.500000 -0.500000 0.000000
v -0.500000 -0.500000 0.000000
vn -0.0000 -0.0000 1.0000
vt 0.000000 0.000000
vt 1.000000 0.000000
vt 0.000000 1.000000
vt 1.000000 1.000000
s 0
usemtl Material.001
f 1/1/1 2/2/1 4/4/1 3/3/1
o Road_1
v 0.500000 -11.500000 0.000000
v -0.500000 -11.500000 0.000000
v 0.500000 -6.500000 0.075000
v -0.500000 -6.500000 0.075000
v -0.500000 -7.500000 0.075000
v -0.500000 -8.500000 0.075000
v -0.500000 -10.500000 0.125000
v 0.500000 -10.500000 0.125000
v 0.500000 -8.500000 0.075000
v 0.500000 -7.500000 0.075000
v -0.500000 -8.850000 0.050000
v 0.500000 -8.850000 0.050000
v -0.500000 -9.500000 0.125000
v 0.500000 -9.500000 0.125000
v -0.500000 -8.875000 0.125000
v -0.500000 -8.850000 0.100000
v 0.500000 -8.850000 0.100000
v 0.500000 -8.875000 0.125000
vn -0.0000 -0.1240 0.9923
vn -0.0000 -0.0000 1.0000
vn -0.0000 -0.0712 0.9975
vn -0.0000 1.0000 -0.0000
vn -0.0000 0.7071 0.7071
vt 0.000000 1.000000
vt 1.000000 1.000000
vt 0.000000 0.500000
vt 1.000000 0.500000
vt 1.000000 0.600000
vt 1.000000 0.700000
vt 1.000000 0.900000
vt 0.000000 0.900000
vt 0.000000 0.700000
vt 0.000000 0.600000
vt 1.000000 0.750000
vt 0.000000 0.750000
vt 1.000000 0.800000
vt 0.000000 0.800000
vt 1.000000 0.751923
vt 1.000000 0.750000
vt 0.000000 0.750000
vt 0.000000 0.751923
s 0
usemtl Material
f 12/12/2 11/11/2 6/6/2 5/5/2
f 7/7/3 8/8/3 9/9/3 14/14/3
f 14/14/3 9/9/3 10/10/3 13/13/3
f 10/10/4 15/15/4 16/16/4 13/13/4
f 18/18/3 17/17/3 11/11/3 12/12/3
f 16/16/5 15/15/5 20/20/5 21/21/5
f 19/19/6 22/22/6 21/21/6 20/20/6
f 22/22/3 19/19/3 17/17/3 18/18/3
o Road_Corner
v -0.500000 -11.500000 0.000000
v -1.500000 -11.500000 0.125000
v -0.500000 -6.500000 0.075000
v -1.500000 -6.500000 0.075000
v -1.500000 -7.500000 0.075000
v -1.500000 -8.500000 0.075000
v -1.500000 -10.500000 0.125000
v -0.500000 -10.500000 0.125000
v -0.500000 -8.500000 0.075000
v -0.500000 -7.500000 0.075000
v -1.500000 -8.850000 0.050000
v -0.500000 -8.850000 0.050000
v -0.500000 -9.500000 0.125000
v -2.500000 -11.500000 0.125000
v -2.500000 -6.500000 0.075000
v -2.500000 -7.500000 0.075000
v -1.500000 -9.500000 0.125000
v -3.500000 -7.500000 0.075000
v -2.500000 -8.500000 0.075000
v -3.500000 -6.500000 0.075000
v -2.500000 -8.850000 0.050000
v -2.500000 -9.500000 0.125000
v -3.500000 -8.500000 0.075000
v -3.166667 -11.500000 0.050000
v -3.166667 -8.850000 0.050000
v -3.166667 -10.500000 0.050000
v -3.166667 -9.500000 0.050000
v -4.500000 -7.500000 0.075000
v -2.500000 -10.500000 0.125000
v -4.500000 -6.500000 0.075000
v -4.500000 -8.500000 0.075000
v -3.500000 -9.500000 0.075000
v -4.500000 -9.500000 0.075000
v -3.500000 -10.500000 0.075000
v -4.500000 -10.500000 0.075000
v -4.500000 -11.500000 0.075000
v -5.500000 -7.500000 0.075000
v -5.500000 -6.500000 0.075000
v -5.500000 -8.500000 0.075000
v -5.500000 -9.500000 0.075000
v -5.500000 -10.500000 0.075000
v -5.500000 -11.500000 0.075000
v -3.500000 -11.500000 0.075000
v -1.500000 -8.850000 0.100000
v -1.500000 -8.875000 0.125000
v -0.500000 -8.850000 0.100000
v -0.500000 -8.875000 0.125000
v -2.500000 -8.875000 0.125000
v -2.500000 -8.850000 0.100000
v -3.141667 -9.500000 0.125000
v -3.166667 -9.500000 0.100000
v -3.166667 -8.850000 0.100000
v -3.141667 -8.875000 0.125000
v -3.166667 -10.500000 0.100000
v -3.141667 -10.500000 0.125000
v -3.141667 -11.500000 0.125000
v -3.166667 -11.500000 0.100000
vn -0.0000 -0.0000 1.0000
vn -0.0000 -0.0712 0.9975
vn -0.0000 1.0000 -0.0000
vn 0.0748 -0.0000 0.9972
vn -1.0000 -0.0000 -0.0000
vn 0.1231 -0.1231 0.9847
vn -0.0000 0.7071 0.7071
vn -0.7071 -0.0000 0.7071
vt 0.000000 1.000000
vt 0.000000 0.800000
vt 1.000000 1.000000
vt 0.000000 0.500000
vt 1.000000 0.500000
vt 0.000000 0.500000
vt 1.000000 0.600000
vt 0.000000 0.600000
vt 1.000000 0.700000
vt 0.000000 0.700000
vt 1.000000 0.900000
vt 0.000000 0.800000
vt 0.000000 0.900000
vt 0.000000 0.900000
vt 0.000000 0.000000
vt 0.000000 0.700000
vt 0.000000 0.600000
vt 0.000000 0.750000
vt 1.000000 0.750000
vt 0.000000 0.750000
vt 0.000000 0.800000
vt 0.000000 0.800000
vt 1.000000 0.500000
vt 1.000000 0.600000
vt 0.000000 0.800000
vt 1.000000 0.800000
vt 1.000000 0.600000
vt 0.000000 0.700000
vt 1.000000 0.700000
vt 1.000000 0.500000
vt 1.000000 0.750000
vt 0.000000 0.750000
vt 1.000000 0.800000
vt 0.000000 0.800000
vt 0.666667 0.700000
vt 1.000000 0.700000
vt 0.666667 0.800000
vt 0.666667 0.750000
vt 0.666667 0.800000
vt 0.666667 0.800000
vt 1.000000 0.600000
vt 1.000000 0.900000
vt 0.000000 0.800000
vt 1.000000 0.500000
vt 1.000000 0.700000
vt 1.000000 0.700000
vt 1.000000 0.700000
vt 1.000000 0.700000
vt 1.000000 0.700000
vt 1.000000 0.700000
vt 1.000000 0.600000
vt 1.000000 0.500000
vt 1.000000 0.700000
vt 1.000000 0.700000
vt 1.000000 0.700000
vt 1.000000 0.700000
vt 1.000000 0.700000
vt 1.000000 0.750000
vt 0.000000 0.750000
vt 0.000000 0.751923
vt 1.000000 0.751923
vt 0.000000 0.750000
vt 0.000000 0.751923
vt 0.000000 0.751923
vt 1.000000 0.751923
vt 0.000000 0.750000
vt 1.000000 0.750000
vt 0.641667 0.800000
vt 0.666667 0.800000
vt 0.666667 0.750000
vt 0.641667 0.751923
vt 0.666667 0.800000
vt 0.641667 0.800000
vt 0.641667 0.800000
vt 0.666667 0.800000
s 0
usemtl Material
f 30/37/7 29/34/7 24/24/7
f 25/26/7 26/27/7 27/29/7 32/39/7
f 32/39/7 27/29/7 28/31/7 31/38/7
f 28/31/8 33/41/8 34/42/8 31/38/8
f 35/43/7 39/48/7 29/33/7 30/36/7
f 33/40/9 43/53/9 71/89/9 66/81/9
f 67/82/7 70/87/7 44/55/7 39/47/7
f 51/65/7 36/44/7 24/24/7 29/34/7
f 26/28/7 37/45/7 38/46/7 27/30/7
f 27/30/7 38/46/7 41/51/7 28/32/7
f 41/51/8 43/53/8 33/40/8 28/32/8
f 39/47/7 44/55/7 51/64/7 29/35/7
f 43/54/9 47/60/9 74/92/9 71/88/9
f 34/42/9 33/41/9 66/80/9 68/84/9
f 54/68/10 49/62/10 47/60/10 45/58/10
f 70/86/7 75/93/7 72/90/7 44/56/7
f 49/62/10 54/68/10 56/70/10 48/61/10
f 45/57/8 47/60/8 43/54/8 41/50/8
f 51/65/7 77/95/7 78/96/7 36/44/7
f 41/51/7 38/46/7 40/49/7 45/58/7
f 73/91/11 74/92/11 47/60/11 49/62/11
f 73/91/11 49/62/11 48/61/11 76/94/11
f 38/46/7 37/45/7 42/52/7 40/49/7
f 40/49/7 42/52/7 52/66/7 50/63/7
f 45/58/7 40/49/7 50/63/7 53/67/7
f 45/58/7 53/67/7 55/69/7 54/68/7
f 54/68/7 55/69/7 57/71/7 56/70/7
f 56/70/7 57/71/7 58/72/7 65/79/7
f 53/67/7 50/63/7 59/73/7 61/75/7
f 55/69/7 53/67/7 61/75/7 62/76/7
f 50/63/7 52/66/7 60/74/7 59/73/7
f 57/71/7 55/69/7 62/76/7 63/77/7
f 58/72/7 57/71/7 63/77/7 64/78/7
f 44/56/7 72/90/7 77/95/7 51/65/7
f 48/61/10 56/70/10 65/79/10 46/59/10
f 46/59/11 79/97/11 76/94/11 48/61/11
f 24/25/12 23/23/12 30/37/12
f 67/83/13 69/85/13 68/84/13 66/80/13
f 73/91/14 76/94/14 77/95/14 72/90/14
f 75/93/13 70/86/13 71/88/13 74/92/13
f 74/92/14 73/91/14 72/90/14 75/93/14
f 76/94/14 79/97/14 78/96/14 77/95/14
f 70/87/13 67/82/13 66/81/13 71/89/13
f 69/85/7 67/83/7 39/48/7 35/43/7
